<svg baseProfile="full" xmlns="http://www.w3.org/2000/svg" height="16" width="15"><path opacity=".2" fill="rgb( 0, 0, 0 )" d="M14.844 13.284c0 .466-.182.905-.512 1.235-.33.33-.77.51-1.236.51-.467 0-.905-.18-1.235-.51l-3.01-3.01c-.83.423-1.756.685-2.752.685C2.73 12.195 0 9.465 0 6.097 0 2.73 2.73 0 6.098 0c3.367 0 6.097 2.73 6.097 6.097 0 1.095-.312 2.108-.817 2.997l2.954 2.954c.33.33.512.77.512 1.236zM6.098 1.47c-2.557 0-4.63 2.072-4.63 4.63s2.073 4.632 4.63 4.632c2.558 0 4.632-2.074 4.632-4.632S8.656 1.47 6.098 1.47z"/></svg>