<svg baseProfile="full" xmlns="http://www.w3.org/2000/svg" height="16" width="15"><path opacity=".2" fill="rgb( 0, 0, 0 )" d="M14.844 13.284c0 .466-.182.905-.512 1.235-.33.33-.769.512-1.236.512-.467 0-.905-.182-1.235-.511l-3.011-3.011c-.83.424-1.756.686-2.752.686-3.368 0-6.098-2.73-6.098-6.098 0-3.367 2.73-6.097 6.098-6.097 3.367 0 6.097 2.73 6.097 6.097 0 1.095-.312 2.108-.817 2.997l2.954 2.954c.33.33.512.769.512 1.236zm-8.746-11.815c-2.557 0-4.631 2.073-4.631 4.631 0 2.558 2.074 4.632 4.631 4.632 2.558 0 4.632-2.074 4.632-4.632s-2.074-4.631-4.632-4.631z"/></svg>